<svg xmlns="http://www.w3.org/2000/svg" width="1600" height="900" viewBox="0 0 1600 900" role="img" aria-labelledby="title desc">
  <title id="title">Ana HR Operations Codex plugin architecture</title>
  <desc id="desc">A diagram showing the GitHub source, the installed Ana HR Operations plugin with four skills, the Codex and ChatGPT workspace, and a separate private Drive data overlay.</desc>
  <defs>
    <linearGradient id="bg" x1="0" y1="0" x2="1" y2="1">
      <stop offset="0" stop-color="#07090d"/>
      <stop offset="1" stop-color="#0b1218"/>
    </linearGradient>
    <linearGradient id="panel" x1="0" y1="0" x2="1" y2="1">
      <stop offset="0" stop-color="#111b22"/>
      <stop offset="1" stop-color="#0c1319"/>
    </linearGradient>
    <filter id="glow" x="-40%" y="-40%" width="180%" height="180%">
      <feGaussianBlur stdDeviation="8" result="blur"/>
      <feMerge><feMergeNode in="blur"/><feMergeNode in="SourceGraphic"/></feMerge>
    </filter>
    <marker id="arrow" viewBox="0 0 10 10" refX="8" refY="5" markerWidth="8" markerHeight="8" orient="auto-start-reverse">
      <path d="M 0 0 L 10 5 L 0 10 z" fill="#4ade80"/>
    </marker>
    <style>
      .display { font: 700 44px Inter, Arial, sans-serif; fill: #f8fafc; letter-spacing: -1px; }
      .eyebrow { font: 700 15px Inter, Arial, sans-serif; fill: #4ade80; letter-spacing: 3px; }
      .label { font: 700 24px Inter, Arial, sans-serif; fill: #f8fafc; }
      .body { font: 500 18px Inter, Arial, sans-serif; fill: #aab6c3; }
      .small { font: 500 15px Inter, Arial, sans-serif; fill: #82909e; }
      .mono { font: 600 16px 'JetBrains Mono', Consolas, monospace; fill: #67e8f9; }
      .skill { font: 650 17px Inter, Arial, sans-serif; fill: #dff9e8; }
    </style>
  </defs>

  <rect width="1600" height="900" rx="36" fill="url(#bg)"/>
  <circle cx="1320" cy="90" r="260" fill="#10b981" opacity="0.06"/>
  <circle cx="220" cy="820" r="300" fill="#06b6d4" opacity="0.04"/>

  <text x="90" y="82" class="eyebrow">REAL INSTALLED PACKAGE · JULY 2026</text>
  <text x="90" y="138" class="display">How Ana HR Operations reaches a team</text>
  <text x="90" y="177" class="body">Shared operating method in the plugin. Private business data stays in its permissioned source.</text>

  <rect x="90" y="248" width="310" height="400" rx="28" fill="url(#panel)" stroke="#26333d"/>
  <text x="126" y="297" class="eyebrow">SOURCE CONTROL</text>
  <text x="126" y="344" class="label">GitHub repository</text>
  <text x="126" y="380" class="mono">ana-ai-business-kit</text>
  <line x1="126" y1="410" x2="364" y2="410" stroke="#26333d"/>
  <text x="126" y="452" class="body">Branches and pull requests</text>
  <text x="126" y="489" class="body">Tests and review</text>
  <text x="126" y="526" class="body">Version tags and changelog</text>
  <text x="126" y="563" class="body">Rollback history</text>
  <rect x="126" y="590" width="224" height="34" rx="17" fill="#10b981" opacity="0.12"/>
  <text x="145" y="613" class="small" fill="#86efac">Engineering governance layer</text>

  <path d="M 410 448 C 450 448, 458 448, 492 448" fill="none" stroke="#4ade80" stroke-width="3" marker-end="url(#arrow)"/>

  <rect x="500" y="220" width="610" height="500" rx="34" fill="#0d171c" stroke="#10b981" stroke-width="2" filter="url(#glow)"/>
  <text x="542" y="270" class="eyebrow">CODEX PLUGIN</text>
  <text x="542" y="315" class="label">Ana HR Operations</text>
  <text x="542" y="348" class="mono">v0.2.0+codex.20260714123709</text>
  <rect x="890" y="267" width="174" height="36" rx="18" fill="#10b981" opacity="0.16"/>
  <text x="921" y="291" class="small" fill="#86efac">plugin.json</text>

  <rect x="542" y="384" width="245" height="112" rx="20" fill="#13241f" stroke="#255c45"/>
  <text x="566" y="422" class="skill">ana-hr-operations</text>
  <text x="566" y="454" class="small">Recruiting, delivery, offers,</text>
  <text x="566" y="478" class="small">invoices and approval queues</text>

  <rect x="815" y="384" width="251" height="112" rx="20" fill="#13241f" stroke="#255c45"/>
  <text x="839" y="422" class="skill">ana-approved-content</text>
  <text x="839" y="454" class="small">Public-safe content briefs</text>
  <text x="839" y="478" class="small">with editorial boundaries</text>

  <rect x="542" y="520" width="245" height="112" rx="20" fill="#102129" stroke="#235468"/>
  <text x="566" y="558" class="skill">ana-research-library</text>
  <text x="566" y="590" class="small">Evidence capture, sources</text>
  <text x="566" y="614" class="small">and research validation</text>

  <rect x="815" y="520" width="251" height="112" rx="20" fill="#102129" stroke="#235468"/>
  <text x="839" y="558" class="skill">ana-template-studio</text>
  <text x="839" y="590" class="small">Template jobs, document</text>
  <text x="839" y="614" class="small">runs and specialist routing</text>

  <text x="542" y="675" class="small">Each skill can include SKILL.md · references · assets · validation scripts</text>

  <path d="M 1120 448 C 1160 448, 1168 448, 1202 448" fill="none" stroke="#4ade80" stroke-width="3" marker-end="url(#arrow)"/>

  <rect x="1210" y="248" width="300" height="400" rx="28" fill="url(#panel)" stroke="#26333d"/>
  <text x="1246" y="297" class="eyebrow">TEAM RUNTIME</text>
  <text x="1246" y="344" class="label">Codex / ChatGPT</text>
  <text x="1246" y="380" class="body">Workspace-approved install</text>
  <line x1="1246" y1="410" x2="1474" y2="410" stroke="#26333d"/>
  <text x="1246" y="452" class="body">Relevant skill loads</text>
  <text x="1246" y="489" class="body">User starts the task</text>
  <text x="1246" y="526" class="body">Tools request permission</text>
  <text x="1246" y="563" class="body">Human reviews the output</text>
  <rect x="1246" y="590" width="212" height="34" rx="17" fill="#06b6d4" opacity="0.12"/>
  <text x="1266" y="613" class="small" fill="#67e8f9">Execution and approvals</text>

  <rect x="345" y="770" width="910" height="76" rx="26" fill="#10161d" stroke="#334155" stroke-dasharray="8 8"/>
  <text x="385" y="803" class="eyebrow" fill="#67e8f9">PRIVATE DATA OVERLAY</text>
  <text x="385" y="830" class="body">Google Drive / SharePoint / Notion: current templates, client files and permissions — referenced by the workflow, not packaged inside it.</text>
  <path d="M 1360 648 C 1360 712, 1180 743, 1120 770" fill="none" stroke="#67e8f9" stroke-width="2" stroke-dasharray="7 7" marker-end="url(#arrow)"/>
</svg>
