<svg width="1200" height="675" viewBox="0 0 1200 675" fill="none" xmlns="http://www.w3.org/2000/svg">
  <rect width="1200" height="675" fill="#070806"/>
  <rect x="46" y="44" width="1108" height="587" rx="60" fill="url(#panel)" stroke="#F4D8A7" stroke-opacity="0.16" stroke-width="2"/>
  <circle cx="246" cy="134" r="132" fill="#D7B27A" fill-opacity="0.16"/>
  <circle cx="982" cy="520" r="172" fill="#1F6F58" fill-opacity="0.24"/>
  <circle cx="884" cy="138" r="106" fill="#66D7B9" fill-opacity="0.10"/>

  <g filter="url(#soft)">
    <rect x="92" y="92" width="322" height="491" rx="46" fill="#FFFFFF" fill-opacity="0.065" stroke="#F4D8A7" stroke-opacity="0.15"/>
    <rect x="128" y="128" width="96" height="96" rx="32" fill="#D7B27A" fill-opacity="0.18" stroke="#F4D8A7" stroke-opacity="0.18"/>
    <text x="176" y="188" text-anchor="middle" fill="#F7E7C0" font-family="Inter, Arial, sans-serif" font-size="30" font-weight="850">JS</text>
    <text x="128" y="282" fill="#FFF8EA" font-family="Inter, Arial, sans-serif" font-size="42" font-weight="850">Hospitality</text>
    <text x="128" y="333" fill="#FFF8EA" font-family="Inter, Arial, sans-serif" font-size="42" font-weight="850">Intelligence</text>
    <text x="128" y="389" fill="#FFF8EA" fill-opacity="0.66" font-family="Inter, Arial, sans-serif" font-size="22" font-weight="550">Bookings, service</text>
    <text x="128" y="422" fill="#FFF8EA" fill-opacity="0.66" font-family="Inter, Arial, sans-serif" font-size="22" font-weight="550">briefings, guest care,</text>
    <text x="128" y="455" fill="#FFF8EA" fill-opacity="0.66" font-family="Inter, Arial, sans-serif" font-size="22" font-weight="550">and team learning.</text>
    <rect x="128" y="507" width="198" height="48" rx="24" fill="#F7E7C0"/>
    <text x="227" y="538" text-anchor="middle" fill="#0D0D0B" font-family="Inter, Arial, sans-serif" font-size="17" font-weight="850">v0.1.0 ZIP</text>
  </g>

  <g stroke="#D7B27A" stroke-opacity="0.62" stroke-width="3" stroke-linecap="round">
    <path d="M522 203 C588 203 603 268 672 268"/>
    <path d="M672 268 C735 268 750 198 814 198"/>
    <path d="M672 268 C736 268 755 382 817 382"/>
    <path d="M817 382 C902 382 910 288 990 288"/>
  </g>
  <g fill="#D7B27A" fill-opacity="0.62">
    <path d="M672 268 L658 260 L658 276 Z"/>
    <path d="M814 198 L800 190 L800 206 Z"/>
    <path d="M817 382 L803 374 L803 390 Z"/>
    <path d="M990 288 L976 280 L976 296 Z"/>
  </g>

  <g filter="url(#soft)">
    <rect x="478" y="148" width="152" height="108" rx="30" fill="#FFFFFF" fill-opacity="0.08" stroke="#F4D8A7" stroke-opacity="0.14"/>
    <text x="554" y="192" text-anchor="middle" fill="#F7E7C0" font-family="Inter, Arial, sans-serif" font-size="18" font-weight="850">Booking</text>
    <text x="554" y="224" text-anchor="middle" fill="#FFF8EA" fill-opacity="0.62" font-family="Inter, Arial, sans-serif" font-size="14" font-weight="650">concierge</text>

    <rect x="648" y="214" width="162" height="112" rx="30" fill="#1F6F58" fill-opacity="0.30" stroke="#F4D8A7" stroke-opacity="0.14"/>
    <text x="729" y="260" text-anchor="middle" fill="#E6FFF4" font-family="Inter, Arial, sans-serif" font-size="18" font-weight="850">Service</text>
    <text x="729" y="292" text-anchor="middle" fill="#FFF8EA" fill-opacity="0.62" font-family="Inter, Arial, sans-serif" font-size="14" font-weight="650">briefing</text>

    <rect x="826" y="146" width="160" height="110" rx="30" fill="#FFFFFF" fill-opacity="0.08" stroke="#F4D8A7" stroke-opacity="0.14"/>
    <text x="906" y="191" text-anchor="middle" fill="#F7E7C0" font-family="Inter, Arial, sans-serif" font-size="18" font-weight="850">Guest</text>
    <text x="906" y="223" text-anchor="middle" fill="#FFF8EA" fill-opacity="0.62" font-family="Inter, Arial, sans-serif" font-size="14" font-weight="650">memory</text>

    <rect x="826" y="330" width="160" height="110" rx="30" fill="#FFFFFF" fill-opacity="0.08" stroke="#F4D8A7" stroke-opacity="0.14"/>
    <text x="906" y="375" text-anchor="middle" fill="#F7E7C0" font-family="Inter, Arial, sans-serif" font-size="18" font-weight="850">Reviews</text>
    <text x="906" y="407" text-anchor="middle" fill="#FFF8EA" fill-opacity="0.62" font-family="Inter, Arial, sans-serif" font-size="14" font-weight="650">learning</text>

    <rect x="990" y="234" width="132" height="112" rx="30" fill="#D7B27A" fill-opacity="0.16" stroke="#F4D8A7" stroke-opacity="0.18"/>
    <text x="1056" y="281" text-anchor="middle" fill="#F7E7C0" font-family="Inter, Arial, sans-serif" font-size="18" font-weight="850">Team</text>
    <text x="1056" y="313" text-anchor="middle" fill="#FFF8EA" fill-opacity="0.62" font-family="Inter, Arial, sans-serif" font-size="14" font-weight="650">handoff</text>
  </g>

  <defs>
    <linearGradient id="panel" x1="46" y1="44" x2="1154" y2="631" gradientUnits="userSpaceOnUse">
      <stop stop-color="#F7E7C0" stop-opacity="0.105"/>
      <stop offset="0.52" stop-color="#1F6F58" stop-opacity="0.14"/>
      <stop offset="1" stop-color="#FFFFFF" stop-opacity="0.05"/>
    </linearGradient>
    <filter id="soft" x="-40" y="-40" width="1280" height="755" filterUnits="userSpaceOnUse" color-interpolation-filters="sRGB">
      <feDropShadow dx="0" dy="28" stdDeviation="32" flood-color="#000000" flood-opacity="0.34"/>
    </filter>
  </defs>
</svg>
