<?xml version="1.0" standalone="no"?>
<svg xmlns="http://www.w3.org/2000/svg" version="1.1" width="931" height="931">
	<!-- Created with https://api.qrserver.com (QR Code API, see goQR.me/api for information) -->
	<title>QR Code</title>
	<desc>https://www.frankx.ai/workshops/ikigai-branding</desc>
	<rect style="fill:rgb(255, 255, 255);fill-opacity:1" x="0" y="0" width="931" height="931" />
	<g id="elements">
		<path style="fill:rgb(15, 15, 18)" d="M 76,76 l 19,0 0,19 -19,0 z M 95,76 l 19,0 0,19 -19,0 z M 114,76 l 19,0 0,19 -19,0 z M 133,76 l 19,0 0,19 -19,0 z M 152,76 l 19,0 0,19 -19,0 z M 171,76 l 19,0 0,19 -19,0 z M 190,76 l 19,0 0,19 -19,0 z M 228,76 l 19,0 0,19 -19,0 z M 266,76 l 19,0 0,19 -19,0 z M 285,76 l 19,0 0,19 -19,0 z M 304,76 l 19,0 0,19 -19,0 z M 342,76 l 19,0 0,19 -19,0 z M 399,76 l 19,0 0,19 -19,0 z M 494,76 l 19,0 0,19 -19,0 z M 513,76 l 19,0 0,19 -19,0 z M 532,76 l 19,0 0,19 -19,0 z M 551,76 l 19,0 0,19 -19,0 z M 608,76 l 19,0 0,19 -19,0 z M 646,76 l 19,0 0,19 -19,0 z M 665,76 l 19,0 0,19 -19,0 z M 722,76 l 19,0 0,19 -19,0 z M 741,76 l 19,0 0,19 -19,0 z M 760,76 l 19,0 0,19 -19,0 z M 779,76 l 19,0 0,19 -19,0 z M 798,76 l 19,0 0,19 -19,0 z M 817,76 l 19,0 0,19 -19,0 z M 836,76 l 19,0 0,19 -19,0 z M 76,95 l 19,0 0,19 -19,0 z M 190,95 l 19,0 0,19 -19,0 z M 228,95 l 19,0 0,19 -19,0 z M 266,95 l 19,0 0,19 -19,0 z M 323,95 l 19,0 0,19 -19,0 z M 399,95 l 19,0 0,19 -19,0 z M 437,95 l 19,0 0,19 -19,0 z M 456,95 l 19,0 0,19 -19,0 z M 494,95 l 19,0 0,19 -19,0 z M 513,95 l 19,0 0,19 -19,0 z M 532,95 l 19,0 0,19 -19,0 z M 551,95 l 19,0 0,19 -19,0 z M 570,95 l 19,0 0,19 -19,0 z M 589,95 l 19,0 0,19 -19,0 z M 646,95 l 19,0 0,19 -19,0 z M 684,95 l 19,0 0,19 -19,0 z M 722,95 l 19,0 0,19 -19,0 z M 836,95 l 19,0 0,19 -19,0 z M 76,114 l 19,0 0,19 -19,0 z M 114,114 l 19,0 0,19 -19,0 z M 133,114 l 19,0 0,19 -19,0 z M 152,114 l 19,0 0,19 -19,0 z M 190,114 l 19,0 0,19 -19,0 z M 228,114 l 19,0 0,19 -19,0 z M 247,114 l 19,0 0,19 -19,0 z M 266,114 l 19,0 0,19 -19,0 z M 304,114 l 19,0 0,19 -19,0 z M 342,114 l 19,0 0,19 -19,0 z M 380,114 l 19,0 0,19 -19,0 z M 437,114 l 19,0 0,19 -19,0 z M 494,114 l 19,0 0,19 -19,0 z M 513,114 l 19,0 0,19 -19,0 z M 532,114 l 19,0 0,19 -19,0 z M 551,114 l 19,0 0,19 -19,0 z M 608,114 l 19,0 0,19 -19,0 z M 722,114 l 19,0 0,19 -19,0 z M 760,114 l 19,0 0,19 -19,0 z M 779,114 l 19,0 0,19 -19,0 z M 798,114 l 19,0 0,19 -19,0 z M 836,114 l 19,0 0,19 -19,0 z M 76,133 l 19,0 0,19 -19,0 z M 114,133 l 19,0 0,19 -19,0 z M 133,133 l 19,0 0,19 -19,0 z M 152,133 l 19,0 0,19 -19,0 z M 190,133 l 19,0 0,19 -19,0 z M 247,133 l 19,0 0,19 -19,0 z M 380,133 l 19,0 0,19 -19,0 z M 399,133 l 19,0 0,19 -19,0 z M 456,133 l 19,0 0,19 -19,0 z M 532,133 l 19,0 0,19 -19,0 z M 570,133 l 19,0 0,19 -19,0 z M 646,133 l 19,0 0,19 -19,0 z M 665,133 l 19,0 0,19 -19,0 z M 722,133 l 19,0 0,19 -19,0 z M 760,133 l 19,0 0,19 -19,0 z M 779,133 l 19,0 0,19 -19,0 z M 798,133 l 19,0 0,19 -19,0 z M 836,133 l 19,0 0,19 -19,0 z M 76,152 l 19,0 0,19 -19,0 z M 114,152 l 19,0 0,19 -19,0 z M 133,152 l 19,0 0,19 -19,0 z M 152,152 l 19,0 0,19 -19,0 z M 190,152 l 19,0 0,19 -19,0 z M 247,152 l 19,0 0,19 -19,0 z M 323,152 l 19,0 0,19 -19,0 z M 342,152 l 19,0 0,19 -19,0 z M 361,152 l 19,0 0,19 -19,0 z M 399,152 l 19,0 0,19 -19,0 z M 418,152 l 19,0 0,19 -19,0 z M 437,152 l 19,0 0,19 -19,0 z M 475,152 l 19,0 0,19 -19,0 z M 494,152 l 19,0 0,19 -19,0 z M 513,152 l 19,0 0,19 -19,0 z M 532,152 l 19,0 0,19 -19,0 z M 608,152 l 19,0 0,19 -19,0 z M 665,152 l 19,0 0,19 -19,0 z M 684,152 l 19,0 0,19 -19,0 z M 722,152 l 19,0 0,19 -19,0 z M 760,152 l 19,0 0,19 -19,0 z M 779,152 l 19,0 0,19 -19,0 z M 798,152 l 19,0 0,19 -19,0 z M 836,152 l 19,0 0,19 -19,0 z M 76,171 l 19,0 0,19 -19,0 z M 190,171 l 19,0 0,19 -19,0 z M 228,171 l 19,0 0,19 -19,0 z M 247,171 l 19,0 0,19 -19,0 z M 285,171 l 19,0 0,19 -19,0 z M 323,171 l 19,0 0,19 -19,0 z M 342,171 l 19,0 0,19 -19,0 z M 361,171 l 19,0 0,19 -19,0 z M 380,171 l 19,0 0,19 -19,0 z M 399,171 l 19,0 0,19 -19,0 z M 475,171 l 19,0 0,19 -19,0 z M 570,171 l 19,0 0,19 -19,0 z M 589,171 l 19,0 0,19 -19,0 z M 627,171 l 19,0 0,19 -19,0 z M 684,171 l 19,0 0,19 -19,0 z M 722,171 l 19,0 0,19 -19,0 z M 836,171 l 19,0 0,19 -19,0 z M 76,190 l 19,0 0,19 -19,0 z M 95,190 l 19,0 0,19 -19,0 z M 114,190 l 19,0 0,19 -19,0 z M 133,190 l 19,0 0,19 -19,0 z M 152,190 l 19,0 0,19 -19,0 z M 171,190 l 19,0 0,19 -19,0 z M 190,190 l 19,0 0,19 -19,0 z M 228,190 l 19,0 0,19 -19,0 z M 266,190 l 19,0 0,19 -19,0 z M 304,190 l 19,0 0,19 -19,0 z M 342,190 l 19,0 0,19 -19,0 z M 380,190 l 19,0 0,19 -19,0 z M 418,190 l 19,0 0,19 -19,0 z M 456,190 l 19,0 0,19 -19,0 z M 494,190 l 19,0 0,19 -19,0 z M 532,190 l 19,0 0,19 -19,0 z M 570,190 l 19,0 0,19 -19,0 z M 608,190 l 19,0 0,19 -19,0 z M 646,190 l 19,0 0,19 -19,0 z M 684,190 l 19,0 0,19 -19,0 z M 722,190 l 19,0 0,19 -19,0 z M 741,190 l 19,0 0,19 -19,0 z M 760,190 l 19,0 0,19 -19,0 z M 779,190 l 19,0 0,19 -19,0 z M 798,190 l 19,0 0,19 -19,0 z M 817,190 l 19,0 0,19 -19,0 z M 836,190 l 19,0 0,19 -19,0 z M 228,209 l 19,0 0,19 -19,0 z M 247,209 l 19,0 0,19 -19,0 z M 266,209 l 19,0 0,19 -19,0 z M 285,209 l 19,0 0,19 -19,0 z M 304,209 l 19,0 0,19 -19,0 z M 323,209 l 19,0 0,19 -19,0 z M 380,209 l 19,0 0,19 -19,0 z M 437,209 l 19,0 0,19 -19,0 z M 475,209 l 19,0 0,19 -19,0 z M 513,209 l 19,0 0,19 -19,0 z M 589,209 l 19,0 0,19 -19,0 z M 665,209 l 19,0 0,19 -19,0 z M 684,209 l 19,0 0,19 -19,0 z M 114,228 l 19,0 0,19 -19,0 z M 133,228 l 19,0 0,19 -19,0 z M 152,228 l 19,0 0,19 -19,0 z M 190,228 l 19,0 0,19 -19,0 z M 228,228 l 19,0 0,19 -19,0 z M 266,228 l 19,0 0,19 -19,0 z M 285,228 l 19,0 0,19 -19,0 z M 380,228 l 19,0 0,19 -19,0 z M 399,228 l 19,0 0,19 -19,0 z M 418,228 l 19,0 0,19 -19,0 z M 456,228 l 19,0 0,19 -19,0 z M 494,228 l 19,0 0,19 -19,0 z M 608,228 l 19,0 0,19 -19,0 z M 627,228 l 19,0 0,19 -19,0 z M 684,228 l 19,0 0,19 -19,0 z M 703,228 l 19,0 0,19 -19,0 z M 722,228 l 19,0 0,19 -19,0 z M 741,228 l 19,0 0,19 -19,0 z M 798,228 l 19,0 0,19 -19,0 z M 817,228 l 19,0 0,19 -19,0 z M 836,228 l 19,0 0,19 -19,0 z M 76,247 l 19,0 0,19 -19,0 z M 114,247 l 19,0 0,19 -19,0 z M 133,247 l 19,0 0,19 -19,0 z M 152,247 l 19,0 0,19 -19,0 z M 228,247 l 19,0 0,19 -19,0 z M 247,247 l 19,0 0,19 -19,0 z M 266,247 l 19,0 0,19 -19,0 z M 285,247 l 19,0 0,19 -19,0 z M 304,247 l 19,0 0,19 -19,0 z M 380,247 l 19,0 0,19 -19,0 z M 399,247 l 19,0 0,19 -19,0 z M 418,247 l 19,0 0,19 -19,0 z M 456,247 l 19,0 0,19 -19,0 z M 475,247 l 19,0 0,19 -19,0 z M 532,247 l 19,0 0,19 -19,0 z M 551,247 l 19,0 0,19 -19,0 z M 608,247 l 19,0 0,19 -19,0 z M 627,247 l 19,0 0,19 -19,0 z M 665,247 l 19,0 0,19 -19,0 z M 684,247 l 19,0 0,19 -19,0 z M 703,247 l 19,0 0,19 -19,0 z M 722,247 l 19,0 0,19 -19,0 z M 741,247 l 19,0 0,19 -19,0 z M 760,247 l 19,0 0,19 -19,0 z M 798,247 l 19,0 0,19 -19,0 z M 817,247 l 19,0 0,19 -19,0 z M 836,247 l 19,0 0,19 -19,0 z M 76,266 l 19,0 0,19 -19,0 z M 114,266 l 19,0 0,19 -19,0 z M 152,266 l 19,0 0,19 -19,0 z M 171,266 l 19,0 0,19 -19,0 z M 190,266 l 19,0 0,19 -19,0 z M 209,266 l 19,0 0,19 -19,0 z M 228,266 l 19,0 0,19 -19,0 z M 247,266 l 19,0 0,19 -19,0 z M 285,266 l 19,0 0,19 -19,0 z M 304,266 l 19,0 0,19 -19,0 z M 323,266 l 19,0 0,19 -19,0 z M 380,266 l 19,0 0,19 -19,0 z M 399,266 l 19,0 0,19 -19,0 z M 456,266 l 19,0 0,19 -19,0 z M 551,266 l 19,0 0,19 -19,0 z M 570,266 l 19,0 0,19 -19,0 z M 589,266 l 19,0 0,19 -19,0 z M 627,266 l 19,0 0,19 -19,0 z M 684,266 l 19,0 0,19 -19,0 z M 703,266 l 19,0 0,19 -19,0 z M 741,266 l 19,0 0,19 -19,0 z M 76,285 l 19,0 0,19 -19,0 z M 133,285 l 19,0 0,19 -19,0 z M 152,285 l 19,0 0,19 -19,0 z M 247,285 l 19,0 0,19 -19,0 z M 266,285 l 19,0 0,19 -19,0 z M 342,285 l 19,0 0,19 -19,0 z M 380,285 l 19,0 0,19 -19,0 z M 399,285 l 19,0 0,19 -19,0 z M 418,285 l 19,0 0,19 -19,0 z M 456,285 l 19,0 0,19 -19,0 z M 475,285 l 19,0 0,19 -19,0 z M 494,285 l 19,0 0,19 -19,0 z M 513,285 l 19,0 0,19 -19,0 z M 532,285 l 19,0 0,19 -19,0 z M 551,285 l 19,0 0,19 -19,0 z M 608,285 l 19,0 0,19 -19,0 z M 665,285 l 19,0 0,19 -19,0 z M 684,285 l 19,0 0,19 -19,0 z M 779,285 l 19,0 0,19 -19,0 z M 76,304 l 19,0 0,19 -19,0 z M 152,304 l 19,0 0,19 -19,0 z M 171,304 l 19,0 0,19 -19,0 z M 190,304 l 19,0 0,19 -19,0 z M 247,304 l 19,0 0,19 -19,0 z M 285,304 l 19,0 0,19 -19,0 z M 304,304 l 19,0 0,19 -19,0 z M 342,304 l 19,0 0,19 -19,0 z M 361,304 l 19,0 0,19 -19,0 z M 399,304 l 19,0 0,19 -19,0 z M 418,304 l 19,0 0,19 -19,0 z M 437,304 l 19,0 0,19 -19,0 z M 532,304 l 19,0 0,19 -19,0 z M 551,304 l 19,0 0,19 -19,0 z M 589,304 l 19,0 0,19 -19,0 z M 608,304 l 19,0 0,19 -19,0 z M 627,304 l 19,0 0,19 -19,0 z M 665,304 l 19,0 0,19 -19,0 z M 703,304 l 19,0 0,19 -19,0 z M 779,304 l 19,0 0,19 -19,0 z M 798,304 l 19,0 0,19 -19,0 z M 817,304 l 19,0 0,19 -19,0 z M 836,304 l 19,0 0,19 -19,0 z M 76,323 l 19,0 0,19 -19,0 z M 114,323 l 19,0 0,19 -19,0 z M 133,323 l 19,0 0,19 -19,0 z M 152,323 l 19,0 0,19 -19,0 z M 171,323 l 19,0 0,19 -19,0 z M 228,323 l 19,0 0,19 -19,0 z M 266,323 l 19,0 0,19 -19,0 z M 285,323 l 19,0 0,19 -19,0 z M 361,323 l 19,0 0,19 -19,0 z M 380,323 l 19,0 0,19 -19,0 z M 456,323 l 19,0 0,19 -19,0 z M 475,323 l 19,0 0,19 -19,0 z M 532,323 l 19,0 0,19 -19,0 z M 589,323 l 19,0 0,19 -19,0 z M 627,323 l 19,0 0,19 -19,0 z M 684,323 l 19,0 0,19 -19,0 z M 741,323 l 19,0 0,19 -19,0 z M 760,323 l 19,0 0,19 -19,0 z M 779,323 l 19,0 0,19 -19,0 z M 798,323 l 19,0 0,19 -19,0 z M 836,323 l 19,0 0,19 -19,0 z M 95,342 l 19,0 0,19 -19,0 z M 114,342 l 19,0 0,19 -19,0 z M 152,342 l 19,0 0,19 -19,0 z M 190,342 l 19,0 0,19 -19,0 z M 228,342 l 19,0 0,19 -19,0 z M 247,342 l 19,0 0,19 -19,0 z M 266,342 l 19,0 0,19 -19,0 z M 304,342 l 19,0 0,19 -19,0 z M 323,342 l 19,0 0,19 -19,0 z M 342,342 l 19,0 0,19 -19,0 z M 380,342 l 19,0 0,19 -19,0 z M 399,342 l 19,0 0,19 -19,0 z M 418,342 l 19,0 0,19 -19,0 z M 437,342 l 19,0 0,19 -19,0 z M 456,342 l 19,0 0,19 -19,0 z M 494,342 l 19,0 0,19 -19,0 z M 589,342 l 19,0 0,19 -19,0 z M 608,342 l 19,0 0,19 -19,0 z M 665,342 l 19,0 0,19 -19,0 z M 703,342 l 19,0 0,19 -19,0 z M 798,342 l 19,0 0,19 -19,0 z M 228,361 l 19,0 0,19 -19,0 z M 247,361 l 19,0 0,19 -19,0 z M 361,361 l 19,0 0,19 -19,0 z M 418,361 l 19,0 0,19 -19,0 z M 513,361 l 19,0 0,19 -19,0 z M 532,361 l 19,0 0,19 -19,0 z M 551,361 l 19,0 0,19 -19,0 z M 570,361 l 19,0 0,19 -19,0 z M 589,361 l 19,0 0,19 -19,0 z M 665,361 l 19,0 0,19 -19,0 z M 684,361 l 19,0 0,19 -19,0 z M 722,361 l 19,0 0,19 -19,0 z M 741,361 l 19,0 0,19 -19,0 z M 779,361 l 19,0 0,19 -19,0 z M 817,361 l 19,0 0,19 -19,0 z M 114,380 l 19,0 0,19 -19,0 z M 152,380 l 19,0 0,19 -19,0 z M 190,380 l 19,0 0,19 -19,0 z M 209,380 l 19,0 0,19 -19,0 z M 228,380 l 19,0 0,19 -19,0 z M 266,380 l 19,0 0,19 -19,0 z M 285,380 l 19,0 0,19 -19,0 z M 323,380 l 19,0 0,19 -19,0 z M 342,380 l 19,0 0,19 -19,0 z M 361,380 l 19,0 0,19 -19,0 z M 399,380 l 19,0 0,19 -19,0 z M 418,380 l 19,0 0,19 -19,0 z M 456,380 l 19,0 0,19 -19,0 z M 475,380 l 19,0 0,19 -19,0 z M 494,380 l 19,0 0,19 -19,0 z M 532,380 l 19,0 0,19 -19,0 z M 551,380 l 19,0 0,19 -19,0 z M 589,380 l 19,0 0,19 -19,0 z M 627,380 l 19,0 0,19 -19,0 z M 665,380 l 19,0 0,19 -19,0 z M 703,380 l 19,0 0,19 -19,0 z M 741,380 l 19,0 0,19 -19,0 z M 798,380 l 19,0 0,19 -19,0 z M 817,380 l 19,0 0,19 -19,0 z M 114,399 l 19,0 0,19 -19,0 z M 152,399 l 19,0 0,19 -19,0 z M 171,399 l 19,0 0,19 -19,0 z M 228,399 l 19,0 0,19 -19,0 z M 247,399 l 19,0 0,19 -19,0 z M 266,399 l 19,0 0,19 -19,0 z M 285,399 l 19,0 0,19 -19,0 z M 323,399 l 19,0 0,19 -19,0 z M 361,399 l 19,0 0,19 -19,0 z M 494,399 l 19,0 0,19 -19,0 z M 608,399 l 19,0 0,19 -19,0 z M 627,399 l 19,0 0,19 -19,0 z M 646,399 l 19,0 0,19 -19,0 z M 665,399 l 19,0 0,19 -19,0 z M 684,399 l 19,0 0,19 -19,0 z M 722,399 l 19,0 0,19 -19,0 z M 741,399 l 19,0 0,19 -19,0 z M 760,399 l 19,0 0,19 -19,0 z M 817,399 l 19,0 0,19 -19,0 z M 836,399 l 19,0 0,19 -19,0 z M 76,418 l 19,0 0,19 -19,0 z M 114,418 l 19,0 0,19 -19,0 z M 133,418 l 19,0 0,19 -19,0 z M 152,418 l 19,0 0,19 -19,0 z M 171,418 l 19,0 0,19 -19,0 z M 190,418 l 19,0 0,19 -19,0 z M 209,418 l 19,0 0,19 -19,0 z M 285,418 l 19,0 0,19 -19,0 z M 323,418 l 19,0 0,19 -19,0 z M 380,418 l 19,0 0,19 -19,0 z M 475,418 l 19,0 0,19 -19,0 z M 513,418 l 19,0 0,19 -19,0 z M 551,418 l 19,0 0,19 -19,0 z M 570,418 l 19,0 0,19 -19,0 z M 589,418 l 19,0 0,19 -19,0 z M 608,418 l 19,0 0,19 -19,0 z M 627,418 l 19,0 0,19 -19,0 z M 684,418 l 19,0 0,19 -19,0 z M 703,418 l 19,0 0,19 -19,0 z M 760,418 l 19,0 0,19 -19,0 z M 779,418 l 19,0 0,19 -19,0 z M 798,418 l 19,0 0,19 -19,0 z M 114,437 l 19,0 0,19 -19,0 z M 152,437 l 19,0 0,19 -19,0 z M 171,437 l 19,0 0,19 -19,0 z M 209,437 l 19,0 0,19 -19,0 z M 228,437 l 19,0 0,19 -19,0 z M 285,437 l 19,0 0,19 -19,0 z M 361,437 l 19,0 0,19 -19,0 z M 418,437 l 19,0 0,19 -19,0 z M 456,437 l 19,0 0,19 -19,0 z M 532,437 l 19,0 0,19 -19,0 z M 570,437 l 19,0 0,19 -19,0 z M 589,437 l 19,0 0,19 -19,0 z M 627,437 l 19,0 0,19 -19,0 z M 646,437 l 19,0 0,19 -19,0 z M 760,437 l 19,0 0,19 -19,0 z M 76,456 l 19,0 0,19 -19,0 z M 95,456 l 19,0 0,19 -19,0 z M 152,456 l 19,0 0,19 -19,0 z M 171,456 l 19,0 0,19 -19,0 z M 190,456 l 19,0 0,19 -19,0 z M 209,456 l 19,0 0,19 -19,0 z M 228,456 l 19,0 0,19 -19,0 z M 266,456 l 19,0 0,19 -19,0 z M 304,456 l 19,0 0,19 -19,0 z M 418,456 l 19,0 0,19 -19,0 z M 437,456 l 19,0 0,19 -19,0 z M 456,456 l 19,0 0,19 -19,0 z M 475,456 l 19,0 0,19 -19,0 z M 551,456 l 19,0 0,19 -19,0 z M 589,456 l 19,0 0,19 -19,0 z M 684,456 l 19,0 0,19 -19,0 z M 760,456 l 19,0 0,19 -19,0 z M 798,456 l 19,0 0,19 -19,0 z M 817,456 l 19,0 0,19 -19,0 z M 76,475 l 19,0 0,19 -19,0 z M 95,475 l 19,0 0,19 -19,0 z M 152,475 l 19,0 0,19 -19,0 z M 209,475 l 19,0 0,19 -19,0 z M 228,475 l 19,0 0,19 -19,0 z M 266,475 l 19,0 0,19 -19,0 z M 285,475 l 19,0 0,19 -19,0 z M 323,475 l 19,0 0,19 -19,0 z M 456,475 l 19,0 0,19 -19,0 z M 475,475 l 19,0 0,19 -19,0 z M 494,475 l 19,0 0,19 -19,0 z M 513,475 l 19,0 0,19 -19,0 z M 551,475 l 19,0 0,19 -19,0 z M 570,475 l 19,0 0,19 -19,0 z M 608,475 l 19,0 0,19 -19,0 z M 646,475 l 19,0 0,19 -19,0 z M 665,475 l 19,0 0,19 -19,0 z M 684,475 l 19,0 0,19 -19,0 z M 703,475 l 19,0 0,19 -19,0 z M 722,475 l 19,0 0,19 -19,0 z M 741,475 l 19,0 0,19 -19,0 z M 779,475 l 19,0 0,19 -19,0 z M 798,475 l 19,0 0,19 -19,0 z M 817,475 l 19,0 0,19 -19,0 z M 836,475 l 19,0 0,19 -19,0 z M 76,494 l 19,0 0,19 -19,0 z M 133,494 l 19,0 0,19 -19,0 z M 190,494 l 19,0 0,19 -19,0 z M 247,494 l 19,0 0,19 -19,0 z M 304,494 l 19,0 0,19 -19,0 z M 323,494 l 19,0 0,19 -19,0 z M 342,494 l 19,0 0,19 -19,0 z M 361,494 l 19,0 0,19 -19,0 z M 399,494 l 19,0 0,19 -19,0 z M 418,494 l 19,0 0,19 -19,0 z M 437,494 l 19,0 0,19 -19,0 z M 475,494 l 19,0 0,19 -19,0 z M 494,494 l 19,0 0,19 -19,0 z M 589,494 l 19,0 0,19 -19,0 z M 608,494 l 19,0 0,19 -19,0 z M 627,494 l 19,0 0,19 -19,0 z M 684,494 l 19,0 0,19 -19,0 z M 703,494 l 19,0 0,19 -19,0 z M 722,494 l 19,0 0,19 -19,0 z M 798,494 l 19,0 0,19 -19,0 z M 76,513 l 19,0 0,19 -19,0 z M 152,513 l 19,0 0,19 -19,0 z M 209,513 l 19,0 0,19 -19,0 z M 228,513 l 19,0 0,19 -19,0 z M 266,513 l 19,0 0,19 -19,0 z M 285,513 l 19,0 0,19 -19,0 z M 304,513 l 19,0 0,19 -19,0 z M 361,513 l 19,0 0,19 -19,0 z M 380,513 l 19,0 0,19 -19,0 z M 399,513 l 19,0 0,19 -19,0 z M 532,513 l 19,0 0,19 -19,0 z M 570,513 l 19,0 0,19 -19,0 z M 665,513 l 19,0 0,19 -19,0 z M 684,513 l 19,0 0,19 -19,0 z M 741,513 l 19,0 0,19 -19,0 z M 779,513 l 19,0 0,19 -19,0 z M 836,513 l 19,0 0,19 -19,0 z M 76,532 l 19,0 0,19 -19,0 z M 95,532 l 19,0 0,19 -19,0 z M 133,532 l 19,0 0,19 -19,0 z M 152,532 l 19,0 0,19 -19,0 z M 171,532 l 19,0 0,19 -19,0 z M 190,532 l 19,0 0,19 -19,0 z M 247,532 l 19,0 0,19 -19,0 z M 266,532 l 19,0 0,19 -19,0 z M 304,532 l 19,0 0,19 -19,0 z M 361,532 l 19,0 0,19 -19,0 z M 380,532 l 19,0 0,19 -19,0 z M 456,532 l 19,0 0,19 -19,0 z M 475,532 l 19,0 0,19 -19,0 z M 494,532 l 19,0 0,19 -19,0 z M 570,532 l 19,0 0,19 -19,0 z M 589,532 l 19,0 0,19 -19,0 z M 627,532 l 19,0 0,19 -19,0 z M 665,532 l 19,0 0,19 -19,0 z M 798,532 l 19,0 0,19 -19,0 z M 836,532 l 19,0 0,19 -19,0 z M 76,551 l 19,0 0,19 -19,0 z M 95,551 l 19,0 0,19 -19,0 z M 228,551 l 19,0 0,19 -19,0 z M 247,551 l 19,0 0,19 -19,0 z M 266,551 l 19,0 0,19 -19,0 z M 285,551 l 19,0 0,19 -19,0 z M 304,551 l 19,0 0,19 -19,0 z M 380,551 l 19,0 0,19 -19,0 z M 399,551 l 19,0 0,19 -19,0 z M 418,551 l 19,0 0,19 -19,0 z M 437,551 l 19,0 0,19 -19,0 z M 608,551 l 19,0 0,19 -19,0 z M 665,551 l 19,0 0,19 -19,0 z M 703,551 l 19,0 0,19 -19,0 z M 722,551 l 19,0 0,19 -19,0 z M 741,551 l 19,0 0,19 -19,0 z M 760,551 l 19,0 0,19 -19,0 z M 779,551 l 19,0 0,19 -19,0 z M 817,551 l 19,0 0,19 -19,0 z M 836,551 l 19,0 0,19 -19,0 z M 76,570 l 19,0 0,19 -19,0 z M 95,570 l 19,0 0,19 -19,0 z M 114,570 l 19,0 0,19 -19,0 z M 133,570 l 19,0 0,19 -19,0 z M 152,570 l 19,0 0,19 -19,0 z M 190,570 l 19,0 0,19 -19,0 z M 209,570 l 19,0 0,19 -19,0 z M 228,570 l 19,0 0,19 -19,0 z M 285,570 l 19,0 0,19 -19,0 z M 323,570 l 19,0 0,19 -19,0 z M 342,570 l 19,0 0,19 -19,0 z M 361,570 l 19,0 0,19 -19,0 z M 380,570 l 19,0 0,19 -19,0 z M 399,570 l 19,0 0,19 -19,0 z M 418,570 l 19,0 0,19 -19,0 z M 437,570 l 19,0 0,19 -19,0 z M 456,570 l 19,0 0,19 -19,0 z M 513,570 l 19,0 0,19 -19,0 z M 532,570 l 19,0 0,19 -19,0 z M 589,570 l 19,0 0,19 -19,0 z M 627,570 l 19,0 0,19 -19,0 z M 646,570 l 19,0 0,19 -19,0 z M 684,570 l 19,0 0,19 -19,0 z M 722,570 l 19,0 0,19 -19,0 z M 741,570 l 19,0 0,19 -19,0 z M 760,570 l 19,0 0,19 -19,0 z M 95,589 l 19,0 0,19 -19,0 z M 114,589 l 19,0 0,19 -19,0 z M 152,589 l 19,0 0,19 -19,0 z M 171,589 l 19,0 0,19 -19,0 z M 228,589 l 19,0 0,19 -19,0 z M 247,589 l 19,0 0,19 -19,0 z M 285,589 l 19,0 0,19 -19,0 z M 304,589 l 19,0 0,19 -19,0 z M 323,589 l 19,0 0,19 -19,0 z M 342,589 l 19,0 0,19 -19,0 z M 361,589 l 19,0 0,19 -19,0 z M 399,589 l 19,0 0,19 -19,0 z M 418,589 l 19,0 0,19 -19,0 z M 437,589 l 19,0 0,19 -19,0 z M 456,589 l 19,0 0,19 -19,0 z M 494,589 l 19,0 0,19 -19,0 z M 551,589 l 19,0 0,19 -19,0 z M 570,589 l 19,0 0,19 -19,0 z M 608,589 l 19,0 0,19 -19,0 z M 646,589 l 19,0 0,19 -19,0 z M 665,589 l 19,0 0,19 -19,0 z M 684,589 l 19,0 0,19 -19,0 z M 703,589 l 19,0 0,19 -19,0 z M 722,589 l 19,0 0,19 -19,0 z M 779,589 l 19,0 0,19 -19,0 z M 817,589 l 19,0 0,19 -19,0 z M 76,608 l 19,0 0,19 -19,0 z M 95,608 l 19,0 0,19 -19,0 z M 114,608 l 19,0 0,19 -19,0 z M 190,608 l 19,0 0,19 -19,0 z M 228,608 l 19,0 0,19 -19,0 z M 247,608 l 19,0 0,19 -19,0 z M 304,608 l 19,0 0,19 -19,0 z M 323,608 l 19,0 0,19 -19,0 z M 418,608 l 19,0 0,19 -19,0 z M 437,608 l 19,0 0,19 -19,0 z M 456,608 l 19,0 0,19 -19,0 z M 513,608 l 19,0 0,19 -19,0 z M 551,608 l 19,0 0,19 -19,0 z M 570,608 l 19,0 0,19 -19,0 z M 627,608 l 19,0 0,19 -19,0 z M 665,608 l 19,0 0,19 -19,0 z M 684,608 l 19,0 0,19 -19,0 z M 722,608 l 19,0 0,19 -19,0 z M 779,608 l 19,0 0,19 -19,0 z M 798,608 l 19,0 0,19 -19,0 z M 76,627 l 19,0 0,19 -19,0 z M 95,627 l 19,0 0,19 -19,0 z M 114,627 l 19,0 0,19 -19,0 z M 133,627 l 19,0 0,19 -19,0 z M 152,627 l 19,0 0,19 -19,0 z M 247,627 l 19,0 0,19 -19,0 z M 266,627 l 19,0 0,19 -19,0 z M 285,627 l 19,0 0,19 -19,0 z M 323,627 l 19,0 0,19 -19,0 z M 342,627 l 19,0 0,19 -19,0 z M 361,627 l 19,0 0,19 -19,0 z M 418,627 l 19,0 0,19 -19,0 z M 437,627 l 19,0 0,19 -19,0 z M 456,627 l 19,0 0,19 -19,0 z M 475,627 l 19,0 0,19 -19,0 z M 494,627 l 19,0 0,19 -19,0 z M 513,627 l 19,0 0,19 -19,0 z M 532,627 l 19,0 0,19 -19,0 z M 570,627 l 19,0 0,19 -19,0 z M 589,627 l 19,0 0,19 -19,0 z M 608,627 l 19,0 0,19 -19,0 z M 646,627 l 19,0 0,19 -19,0 z M 703,627 l 19,0 0,19 -19,0 z M 760,627 l 19,0 0,19 -19,0 z M 798,627 l 19,0 0,19 -19,0 z M 836,627 l 19,0 0,19 -19,0 z M 76,646 l 19,0 0,19 -19,0 z M 133,646 l 19,0 0,19 -19,0 z M 171,646 l 19,0 0,19 -19,0 z M 190,646 l 19,0 0,19 -19,0 z M 228,646 l 19,0 0,19 -19,0 z M 266,646 l 19,0 0,19 -19,0 z M 285,646 l 19,0 0,19 -19,0 z M 304,646 l 19,0 0,19 -19,0 z M 323,646 l 19,0 0,19 -19,0 z M 342,646 l 19,0 0,19 -19,0 z M 361,646 l 19,0 0,19 -19,0 z M 380,646 l 19,0 0,19 -19,0 z M 399,646 l 19,0 0,19 -19,0 z M 456,646 l 19,0 0,19 -19,0 z M 494,646 l 19,0 0,19 -19,0 z M 513,646 l 19,0 0,19 -19,0 z M 551,646 l 19,0 0,19 -19,0 z M 627,646 l 19,0 0,19 -19,0 z M 646,646 l 19,0 0,19 -19,0 z M 684,646 l 19,0 0,19 -19,0 z M 703,646 l 19,0 0,19 -19,0 z M 722,646 l 19,0 0,19 -19,0 z M 760,646 l 19,0 0,19 -19,0 z M 779,646 l 19,0 0,19 -19,0 z M 798,646 l 19,0 0,19 -19,0 z M 76,665 l 19,0 0,19 -19,0 z M 152,665 l 19,0 0,19 -19,0 z M 228,665 l 19,0 0,19 -19,0 z M 247,665 l 19,0 0,19 -19,0 z M 285,665 l 19,0 0,19 -19,0 z M 342,665 l 19,0 0,19 -19,0 z M 399,665 l 19,0 0,19 -19,0 z M 437,665 l 19,0 0,19 -19,0 z M 494,665 l 19,0 0,19 -19,0 z M 513,665 l 19,0 0,19 -19,0 z M 532,665 l 19,0 0,19 -19,0 z M 551,665 l 19,0 0,19 -19,0 z M 570,665 l 19,0 0,19 -19,0 z M 608,665 l 19,0 0,19 -19,0 z M 646,665 l 19,0 0,19 -19,0 z M 703,665 l 19,0 0,19 -19,0 z M 722,665 l 19,0 0,19 -19,0 z M 779,665 l 19,0 0,19 -19,0 z M 836,665 l 19,0 0,19 -19,0 z M 76,684 l 19,0 0,19 -19,0 z M 171,684 l 19,0 0,19 -19,0 z M 190,684 l 19,0 0,19 -19,0 z M 285,684 l 19,0 0,19 -19,0 z M 304,684 l 19,0 0,19 -19,0 z M 323,684 l 19,0 0,19 -19,0 z M 361,684 l 19,0 0,19 -19,0 z M 380,684 l 19,0 0,19 -19,0 z M 399,684 l 19,0 0,19 -19,0 z M 437,684 l 19,0 0,19 -19,0 z M 551,684 l 19,0 0,19 -19,0 z M 570,684 l 19,0 0,19 -19,0 z M 627,684 l 19,0 0,19 -19,0 z M 684,684 l 19,0 0,19 -19,0 z M 703,684 l 19,0 0,19 -19,0 z M 722,684 l 19,0 0,19 -19,0 z M 741,684 l 19,0 0,19 -19,0 z M 760,684 l 19,0 0,19 -19,0 z M 779,684 l 19,0 0,19 -19,0 z M 798,684 l 19,0 0,19 -19,0 z M 836,684 l 19,0 0,19 -19,0 z M 228,703 l 19,0 0,19 -19,0 z M 266,703 l 19,0 0,19 -19,0 z M 285,703 l 19,0 0,19 -19,0 z M 304,703 l 19,0 0,19 -19,0 z M 361,703 l 19,0 0,19 -19,0 z M 399,703 l 19,0 0,19 -19,0 z M 437,703 l 19,0 0,19 -19,0 z M 475,703 l 19,0 0,19 -19,0 z M 551,703 l 19,0 0,19 -19,0 z M 570,703 l 19,0 0,19 -19,0 z M 608,703 l 19,0 0,19 -19,0 z M 684,703 l 19,0 0,19 -19,0 z M 760,703 l 19,0 0,19 -19,0 z M 779,703 l 19,0 0,19 -19,0 z M 798,703 l 19,0 0,19 -19,0 z M 817,703 l 19,0 0,19 -19,0 z M 836,703 l 19,0 0,19 -19,0 z M 76,722 l 19,0 0,19 -19,0 z M 95,722 l 19,0 0,19 -19,0 z M 114,722 l 19,0 0,19 -19,0 z M 133,722 l 19,0 0,19 -19,0 z M 152,722 l 19,0 0,19 -19,0 z M 171,722 l 19,0 0,19 -19,0 z M 190,722 l 19,0 0,19 -19,0 z M 304,722 l 19,0 0,19 -19,0 z M 323,722 l 19,0 0,19 -19,0 z M 342,722 l 19,0 0,19 -19,0 z M 361,722 l 19,0 0,19 -19,0 z M 418,722 l 19,0 0,19 -19,0 z M 456,722 l 19,0 0,19 -19,0 z M 475,722 l 19,0 0,19 -19,0 z M 551,722 l 19,0 0,19 -19,0 z M 570,722 l 19,0 0,19 -19,0 z M 589,722 l 19,0 0,19 -19,0 z M 646,722 l 19,0 0,19 -19,0 z M 665,722 l 19,0 0,19 -19,0 z M 684,722 l 19,0 0,19 -19,0 z M 722,722 l 19,0 0,19 -19,0 z M 760,722 l 19,0 0,19 -19,0 z M 779,722 l 19,0 0,19 -19,0 z M 798,722 l 19,0 0,19 -19,0 z M 76,741 l 19,0 0,19 -19,0 z M 190,741 l 19,0 0,19 -19,0 z M 285,741 l 19,0 0,19 -19,0 z M 323,741 l 19,0 0,19 -19,0 z M 380,741 l 19,0 0,19 -19,0 z M 418,741 l 19,0 0,19 -19,0 z M 456,741 l 19,0 0,19 -19,0 z M 494,741 l 19,0 0,19 -19,0 z M 513,741 l 19,0 0,19 -19,0 z M 532,741 l 19,0 0,19 -19,0 z M 551,741 l 19,0 0,19 -19,0 z M 570,741 l 19,0 0,19 -19,0 z M 665,741 l 19,0 0,19 -19,0 z M 684,741 l 19,0 0,19 -19,0 z M 760,741 l 19,0 0,19 -19,0 z M 779,741 l 19,0 0,19 -19,0 z M 817,741 l 19,0 0,19 -19,0 z M 836,741 l 19,0 0,19 -19,0 z M 76,760 l 19,0 0,19 -19,0 z M 114,760 l 19,0 0,19 -19,0 z M 133,760 l 19,0 0,19 -19,0 z M 152,760 l 19,0 0,19 -19,0 z M 190,760 l 19,0 0,19 -19,0 z M 228,760 l 19,0 0,19 -19,0 z M 247,760 l 19,0 0,19 -19,0 z M 266,760 l 19,0 0,19 -19,0 z M 285,760 l 19,0 0,19 -19,0 z M 323,760 l 19,0 0,19 -19,0 z M 342,760 l 19,0 0,19 -19,0 z M 361,760 l 19,0 0,19 -19,0 z M 380,760 l 19,0 0,19 -19,0 z M 399,760 l 19,0 0,19 -19,0 z M 418,760 l 19,0 0,19 -19,0 z M 456,760 l 19,0 0,19 -19,0 z M 532,760 l 19,0 0,19 -19,0 z M 589,760 l 19,0 0,19 -19,0 z M 608,760 l 19,0 0,19 -19,0 z M 646,760 l 19,0 0,19 -19,0 z M 684,760 l 19,0 0,19 -19,0 z M 703,760 l 19,0 0,19 -19,0 z M 722,760 l 19,0 0,19 -19,0 z M 741,760 l 19,0 0,19 -19,0 z M 760,760 l 19,0 0,19 -19,0 z M 798,760 l 19,0 0,19 -19,0 z M 817,760 l 19,0 0,19 -19,0 z M 76,779 l 19,0 0,19 -19,0 z M 114,779 l 19,0 0,19 -19,0 z M 133,779 l 19,0 0,19 -19,0 z M 152,779 l 19,0 0,19 -19,0 z M 190,779 l 19,0 0,19 -19,0 z M 228,779 l 19,0 0,19 -19,0 z M 247,779 l 19,0 0,19 -19,0 z M 285,779 l 19,0 0,19 -19,0 z M 361,779 l 19,0 0,19 -19,0 z M 380,779 l 19,0 0,19 -19,0 z M 399,779 l 19,0 0,19 -19,0 z M 437,779 l 19,0 0,19 -19,0 z M 494,779 l 19,0 0,19 -19,0 z M 513,779 l 19,0 0,19 -19,0 z M 532,779 l 19,0 0,19 -19,0 z M 551,779 l 19,0 0,19 -19,0 z M 570,779 l 19,0 0,19 -19,0 z M 608,779 l 19,0 0,19 -19,0 z M 665,779 l 19,0 0,19 -19,0 z M 684,779 l 19,0 0,19 -19,0 z M 703,779 l 19,0 0,19 -19,0 z M 741,779 l 19,0 0,19 -19,0 z M 779,779 l 19,0 0,19 -19,0 z M 817,779 l 19,0 0,19 -19,0 z M 836,779 l 19,0 0,19 -19,0 z M 76,798 l 19,0 0,19 -19,0 z M 114,798 l 19,0 0,19 -19,0 z M 133,798 l 19,0 0,19 -19,0 z M 152,798 l 19,0 0,19 -19,0 z M 190,798 l 19,0 0,19 -19,0 z M 228,798 l 19,0 0,19 -19,0 z M 285,798 l 19,0 0,19 -19,0 z M 323,798 l 19,0 0,19 -19,0 z M 361,798 l 19,0 0,19 -19,0 z M 380,798 l 19,0 0,19 -19,0 z M 437,798 l 19,0 0,19 -19,0 z M 475,798 l 19,0 0,19 -19,0 z M 494,798 l 19,0 0,19 -19,0 z M 513,798 l 19,0 0,19 -19,0 z M 570,798 l 19,0 0,19 -19,0 z M 589,798 l 19,0 0,19 -19,0 z M 608,798 l 19,0 0,19 -19,0 z M 627,798 l 19,0 0,19 -19,0 z M 665,798 l 19,0 0,19 -19,0 z M 703,798 l 19,0 0,19 -19,0 z M 722,798 l 19,0 0,19 -19,0 z M 741,798 l 19,0 0,19 -19,0 z M 760,798 l 19,0 0,19 -19,0 z M 779,798 l 19,0 0,19 -19,0 z M 798,798 l 19,0 0,19 -19,0 z M 817,798 l 19,0 0,19 -19,0 z M 76,817 l 19,0 0,19 -19,0 z M 190,817 l 19,0 0,19 -19,0 z M 247,817 l 19,0 0,19 -19,0 z M 342,817 l 19,0 0,19 -19,0 z M 361,817 l 19,0 0,19 -19,0 z M 418,817 l 19,0 0,19 -19,0 z M 456,817 l 19,0 0,19 -19,0 z M 475,817 l 19,0 0,19 -19,0 z M 532,817 l 19,0 0,19 -19,0 z M 551,817 l 19,0 0,19 -19,0 z M 570,817 l 19,0 0,19 -19,0 z M 684,817 l 19,0 0,19 -19,0 z M 703,817 l 19,0 0,19 -19,0 z M 722,817 l 19,0 0,19 -19,0 z M 760,817 l 19,0 0,19 -19,0 z M 817,817 l 19,0 0,19 -19,0 z M 76,836 l 19,0 0,19 -19,0 z M 95,836 l 19,0 0,19 -19,0 z M 114,836 l 19,0 0,19 -19,0 z M 133,836 l 19,0 0,19 -19,0 z M 152,836 l 19,0 0,19 -19,0 z M 171,836 l 19,0 0,19 -19,0 z M 190,836 l 19,0 0,19 -19,0 z M 247,836 l 19,0 0,19 -19,0 z M 266,836 l 19,0 0,19 -19,0 z M 285,836 l 19,0 0,19 -19,0 z M 323,836 l 19,0 0,19 -19,0 z M 361,836 l 19,0 0,19 -19,0 z M 380,836 l 19,0 0,19 -19,0 z M 399,836 l 19,0 0,19 -19,0 z M 475,836 l 19,0 0,19 -19,0 z M 494,836 l 19,0 0,19 -19,0 z M 532,836 l 19,0 0,19 -19,0 z M 627,836 l 19,0 0,19 -19,0 z M 646,836 l 19,0 0,19 -19,0 z M 741,836 l 19,0 0,19 -19,0 z M 760,836 l 19,0 0,19 -19,0 z " />
	</g>
</svg>
