<svg xmlns="http://www.w3.org/2000/svg" width="1080" height="1920" viewBox="0 0 1080 1920" role="img" aria-labelledby="title desc">
  <title id="title">Family AI Operating System vertical social card</title>
  <desc id="desc">Vertical FrankX social card for the Family AI Operating System article.</desc>
  <defs>
    <radialGradient id="glow" cx="50%" cy="38%" r="78%">
      <stop offset="0%" stop-color="#10b981" stop-opacity="0.28"/>
      <stop offset="52%" stop-color="#06b6d4" stop-opacity="0.13"/>
      <stop offset="100%" stop-color="#0a0a0b" stop-opacity="0"/>
    </radialGradient>
    <linearGradient id="line" x1="0%" y1="0%" x2="100%" y2="0%">
      <stop offset="0%" stop-color="#10b981"/>
      <stop offset="62%" stop-color="#06b6d4"/>
      <stop offset="100%" stop-color="#f59e0b"/>
    </linearGradient>
    <style>
      .bg { fill: #0a0a0b; }
      .grid { stroke: #ffffff; stroke-opacity: 0.045; stroke-width: 1; }
      .eyebrow { fill: #6ee7b7; font: 700 22px "JetBrains Mono", Consolas, monospace; letter-spacing: 3px; }
      .title { fill: #f8fafc; font: 800 82px Poppins, Inter, Arial, sans-serif; }
      .deck { fill: #cbd5e1; font: 500 31px Inter, Arial, sans-serif; }
      .tiny { fill: #94a3b8; font: 600 23px Inter, Arial, sans-serif; }
      .panel { fill: #111827; stroke: #ffffff; stroke-opacity: 0.12; stroke-width: 1.3; }
      .signal { stroke: url(#line); stroke-width: 6; fill: none; stroke-linecap: round; }
    </style>
  </defs>
  <rect class="bg" width="1080" height="1920"/>
  <rect width="1080" height="1920" fill="url(#glow)"/>
  <path class="grid" d="M100 0v1920M260 0v1920M420 0v1920M580 0v1920M740 0v1920M900 0v1920"/>
  <path class="grid" d="M0 140h1080M0 340h1080M0 540h1080M0 740h1080M0 940h1080M0 1140h1080M0 1340h1080M0 1540h1080M0 1740h1080"/>
  <text class="eyebrow" x="82" y="154">FRANKX FIELD GUIDE</text>
  <text class="title" x="82" y="310">Family AI</text>
  <text class="title" x="82" y="410">Operating</text>
  <text class="title" x="82" y="510">System</text>
  <text class="deck" x="84" y="590">For families, founders, builders,</text>
  <text class="deck" x="84" y="632">and the next generation.</text>
  <g transform="translate(170 770)">
    <rect class="panel" width="740" height="486" rx="42"/>
    <circle cx="370" cy="170" r="106" fill="#0f1f1a" stroke="#10b981" stroke-opacity="0.58" stroke-width="4"/>
    <circle cx="370" cy="170" r="56" fill="#111827" stroke="#06b6d4" stroke-opacity="0.72" stroke-width="4"/>
    <path class="signal" d="M370 64 C270 120 242 232 302 320"/>
    <path class="signal" d="M370 64 C470 120 498 232 438 320"/>
    <path class="signal" d="M302 320 C350 360 398 360 438 320"/>
    <text class="tiny" x="74" y="390">Learn -> build -> verify -> protect</text>
    <text class="tiny" x="74" y="430">Teach the lesson. Write the playbook.</text>
  </g>
  <text class="tiny" x="82" y="1744">frankx.ai/blog</text>
</svg>
