<svg viewBox="0 0 512 512" xmlns="http://www.w3.org/2000/svg">
  <path fill="#0081FB" d="M449.9 192.8C446.5 175.5 437.7 159.6 425 147.3c-27-26.2-72.5-26.7-100.2-1.2-22.1 20.4-30.5 51.6-22.1 80.1 8.1 27.8 31.5 49.5 60.2 55.8 25.9 5.7 52.9-2.1 72-20.7 19-18.6 28-45.4 24-68.5zm-143 141.5c-37.2-8.9-75.7 4.4-100.5 34.6-24.8 30.2-31.5 72-17.5 109.1 14.9 39.3 52.4 65.7 94.9 67.1 42.5 1.4 81.8-22.5 99.6-60.6 17.8-38.1 12.7-83.7-13.1-116.3-22.2-28.1-51.5-43.1-63.4-33.9z"/>
  <path fill="#0081FB" d="M62 192.9C58.6 175.5 49.8 159.6 37.1 147.4 10 121.1-35.5 120.6-63.2 145.2c-22.1 20.3-30.5 51.5-22.1 80 8.1 27.8 31.5 49.5 60.2 55.8 25.9 5.7 52.9-2.1 72-20.7 19-18.5 28-45.3 24-68.4z"/>
</svg>
