<svg xmlns="http://www.w3.org/2000/svg" width="1400" height="760" viewBox="0 0 1400 760" role="img" aria-label="Image Generator Decision Map infographic"><defs><radialGradient id="g" cx="50%" cy="35%" r="70%"><stop stop-color="#10b981" stop-opacity="0.18"/><stop offset="0.55" stop-color="#0a0a0b"/><stop offset="1" stop-color="#0a0a0b"/></radialGradient></defs><rect width="1400" height="760" fill="#0a0a0b"/><rect x="44" y="44" width="1312" height="672" rx="32" fill="url(#g)" stroke="#1f2937"/><text x="96" y="126" fill="#10b981" font-family="Inter,Arial,sans-serif" font-size="18" font-weight="800" letter-spacing="4">FRANKX VISUAL SYSTEM</text><text x="96" y="184" fill="#f8fafc" font-family="Inter,Arial,sans-serif" font-size="52" font-weight="800">Image Generator Decision Map</text><text x="96" y="226" fill="#9ca3af" font-family="Inter,Arial,sans-serif" font-size="22">A deterministic diagram for exact labels, built to pair with the generated hero.</text><path d="M 184 250 C 235 250, 230 410, 295 410" fill="none" stroke="#10b981" stroke-opacity="0.55" stroke-width="3"/><g><rect x="120" y="206" width="132" height="88" rx="18" fill="#111318" stroke="#10b981" stroke-opacity="0.55"/><circle cx="144" cy="232" r="5" fill="#10b981"/><text x="144" y="258" fill="#f8fafc" font-family="Inter,Arial,sans-serif" font-size="17" font-weight="700">Prompt fit</text></g>
<path d="M 359 410 C 410 410, 405 250, 470 250" fill="none" stroke="#10b981" stroke-opacity="0.55" stroke-width="3"/><g><rect x="295" y="366" width="132" height="88" rx="18" fill="#111318" stroke="#10b981" stroke-opacity="0.55"/><circle cx="319" cy="392" r="5" fill="#10b981"/><text x="319" y="418" fill="#f8fafc" font-family="Inter,Arial,sans-serif" font-size="17" font-weight="700">Style control</text></g>
<path d="M 534 250 C 585 250, 580 410, 645 410" fill="none" stroke="#10b981" stroke-opacity="0.55" stroke-width="3"/><g><rect x="470" y="206" width="132" height="88" rx="18" fill="#111318" stroke="#10b981" stroke-opacity="0.55"/><circle cx="494" cy="232" r="5" fill="#10b981"/><text x="494" y="258" fill="#f8fafc" font-family="Inter,Arial,sans-serif" font-size="17" font-weight="700">Text accuracy</text></g>
<path d="M 709 410 C 760 410, 755 250, 820 250" fill="none" stroke="#10b981" stroke-opacity="0.55" stroke-width="3"/><g><rect x="645" y="366" width="132" height="88" rx="18" fill="#111318" stroke="#10b981" stroke-opacity="0.55"/><circle cx="669" cy="392" r="5" fill="#10b981"/><text x="669" y="418" fill="#f8fafc" font-family="Inter,Arial,sans-serif" font-size="17" font-weight="700">Editing</text></g>
<path d="M 884 250 C 935 250, 930 410, 995 410" fill="none" stroke="#10b981" stroke-opacity="0.55" stroke-width="3"/><g><rect x="820" y="206" width="132" height="88" rx="18" fill="#111318" stroke="#10b981" stroke-opacity="0.55"/><circle cx="844" cy="232" r="5" fill="#10b981"/><text x="844" y="258" fill="#f8fafc" font-family="Inter,Arial,sans-serif" font-size="17" font-weight="700">Cost</text></g>
<g><rect x="995" y="366" width="132" height="88" rx="18" fill="#111318" stroke="#10b981" stroke-opacity="0.55"/><circle cx="1019" cy="392" r="5" fill="#10b981"/><text x="1019" y="418" fill="#f8fafc" font-family="Inter,Arial,sans-serif" font-size="17" font-weight="700">Rights</text></g><text x="96" y="650" fill="#64748b" font-family="Inter,Arial,sans-serif" font-size="18">Use as in-article figure, carousel source, or investor/founder briefing visual.</text></svg>