<svg xmlns="http://www.w3.org/2000/svg" width="1600" height="900" viewBox="0 0 1600 900" role="img" aria-label="Abstract aurora gradients with orbiting light forms">
  <defs>
    <linearGradient id="bg" x1="0" y1="0" x2="1" y2="1">
      <stop offset="0" stop-color="#0b1020"/>
      <stop offset="0.5" stop-color="#0f1b3a"/>
      <stop offset="1" stop-color="#1b1f3b"/>
    </linearGradient>
    <radialGradient id="aurora" cx="50%" cy="40%" r="60%">
      <stop offset="0" stop-color="#6ee7ff" stop-opacity="0.7"/>
      <stop offset="0.35" stop-color="#8b5cf6" stop-opacity="0.5"/>
      <stop offset="0.7" stop-color="#f59e0b" stop-opacity="0.25"/>
      <stop offset="1" stop-color="#0b1020" stop-opacity="0"/>
    </radialGradient>
    <linearGradient id="trail" x1="0" y1="0" x2="1" y2="0">
      <stop offset="0" stop-color="#22d3ee" stop-opacity="0"/>
      <stop offset="0.5" stop-color="#22d3ee" stop-opacity="0.6"/>
      <stop offset="1" stop-color="#a855f7" stop-opacity="0"/>
    </linearGradient>
    <filter id="blur" x="-20%" y="-20%" width="140%" height="140%">
      <feGaussianBlur stdDeviation="40"/>
    </filter>
  </defs>
  <rect width="1600" height="900" fill="url(#bg)"/>
  <rect width="1600" height="900" fill="url(#aurora)"/>
  <g filter="url(#blur)" opacity="0.75">
    <circle cx="420" cy="360" r="210" fill="#38bdf8"/>
    <circle cx="1120" cy="260" r="180" fill="#a855f7"/>
    <circle cx="950" cy="620" r="260" fill="#f97316"/>
  </g>
  <g opacity="0.55">
    <path d="M120 640 C 420 520, 700 700, 980 560 C 1220 440, 1380 520, 1500 460" fill="none" stroke="url(#trail)" stroke-width="10"/>
    <path d="M180 720 C 460 600, 760 780, 1040 640 C 1260 520, 1420 580, 1520 520" fill="none" stroke="url(#trail)" stroke-width="6"/>
  </g>
  <g opacity="0.7">
    <circle cx="1180" cy="540" r="4" fill="#e2e8f0"/>
    <circle cx="1228" cy="520" r="2.5" fill="#e2e8f0"/>
    <circle cx="1260" cy="560" r="3" fill="#e2e8f0"/>
    <circle cx="420" cy="220" r="3" fill="#e2e8f0"/>
    <circle cx="460" cy="200" r="2" fill="#e2e8f0"/>
    <circle cx="500" cy="240" r="2.5" fill="#e2e8f0"/>
  </g>
</svg>
